/* XPM */
static char *grass__2_1705721811[] = {
/* columns rows colors chars-per-pixel */
"50 50 46 1 ",
"  c #87A841",
". c #9CC848",
"X c #8FBA4B",
"o c #77A252",
"O c #85AF5A",
"+ c #6B8C30",
"@ c #446D1F",
"# c #447A0A",
"$ c #5B8B2D",
"% c #5A7F32",
"& c #44610E",
"* c #4A7A1D",
"= c #598C1A",
"- c #3E6F0C",
"; c #79973A",
": c #699B32",
"> c #619627",
", c #50860D",
"< c #608B41",
"1 c #4F7410",
"2 c #2E5809",
"3 c #3A5E21",
"4 c #6B9943",
"5 c #34650A",
"6 c #76A83F",
"7 c #71A530",
"8 c #82A32A",
"9 c #A3CC64",
"0 c #2E4A14",
"q c #193A06",
"w c #4D7431",
"e c #7CB12C",
"r c #5C781A",
"t c #68871A",
"y c #6F981F",
"u c #528322",
"i c #80B445",
"p c #5F9711",
"a c #6EA61A",
"s c #214C05",
"d c #94BD62",
"f c #0A2103",
"g c gray23",
"h c #292A29",
"j c #8BBC33",
"k c white",
/* pixels */
" ..XX oO+@#$%%&*=-%;=:>#,=><+12345**$667O+*46*$4:$",
":+8+;;O9.&55<40q<%w$1-15-3$w:w+@4$3w<>7>>e6>@o66X:",
"3oX++r+7tr,#534<>:$:y1&%u<>w4%  <o4O:%:6uw>@%rty:4",
"@oi:,@:,@X#5&03@:$5#@47-@4u%%4=3O$-*u%4<%<:@o68$y>",
"#::@%;$**r25*7r&u:6%up=wu%%wuw>-u%@w3u<<<+4<O6==ee",
"-:a<o ;+=s&;r,rw$5@w12qup,u>=wo>-@u>1234:4:7@44w4;",
"w=,r8tt:4woX8223:$@@50$-u4652#wo%<o:>w*uuoyu$,%667",
"$#ur;&0=+;6+ ;r,@**&3%:#53:$wwuu$+6=$47124:u674:u4",
"$1&@+  =1+rt-%852@*$$ap--#,@4<7u%1+y1%+=w;75@+>=47",
"1&1@6>-2@$>,23;,<6$47us-uu-347yp>,#22***:=0<t>-%yy",
"@3<$*44=5@<y&w=#48-o$3w2<>2%;7=s055$23@wOuw7=#%r&;",
":::>220%<#1#34$sw8#u*s@,%7s-=+o<<@36w*%6tw$ru%oi47",
"=-#=2--<4:1&225oo7%120w=w4=2#w:,@o*u6**p23$47od$4>",
",q2*-11@*w$$1&53d8w7$315$6$@@**5*$,*uu=2@e=7a1$>44",
"p@=,5-wu%%u*u8&f4;r237t&*==%%<u@@4:uss:w#,>>r-@$7,",
"u-=*uuu@%>u@w720r0%1&e=2+*,#+$wo<#-<u2$>5-i6%<<6:=",
"$$r22w10;u<8+i1; 1&t181@$u$@;oO7:,04a53:s-> ;4:+;:",
"4u<o@<%%8=*=<:*uyy=w;1*<$5u#@di1u23:223<4$s0$4y=y7",
"*-s*uu>=%u,#<+<:5ua@Ou$>=2:#-6sg4w<=5#<4OOwww5p-2&",
"f++3@@%s3>a$4::=s2r*4eu=*$7#5%%w>@#5-2w$,%O;Oo>$+w",
"3$0%**>,31-u,ua#@=52<:u=5u4:347:$@$=<oi7>*-2*:4< 6",
"%4w3w>#2w=23$==@%p72@>=#**%e2u5w$=5-#*$7*@-<:5q<+>",
"$o43@1ss@>@%:,5<Xy,3@6p-=&w72uswu-3<4:1$-s-:=s3d,-",
"*<o:4:@@%6-t>@0u7=0w$7,#p>:u%:&@<<$:$:#&*3>,u@2qq3",
"-r;@<6$:u<=r*4:-*#%o>>>55*6>>,223$@*5>5-u-@u>w%*$$",
"5r@w=*$>u@*5@>>r35%4%o:@w,<71=+<%&%$*-5%:3@r=@:e,2",
"&&@t&*y#t0w%@@#5**w6#*u@<76t-,r<:r=@4=21u4=s,#*#**",
"rq3115--0&u@67$@%4u>y=>@<des*=2%>*$$: @@@r>>5s@23$",
"&0<71-3&h%rqu=2+,<w%u=t23X7w+-1$650+y1*+7u2u3w ,s%",
"1r%+wyu+r:i<6,3ip23oi=r&-e=%::136==>-5%>1t5@4d8##@",
"u:34<;2w:=:-@>:p,&%>>uru->sqp=@@61,yr-5$tt*%10%$#5",
"-u==uu,@>#%u2uu=,,u*$%$%:+@wu-=-<-#-q4#s@&34;@u1-<",
"-s5*@3u@:-3750&@w=->p%<w<y1$o$@u4$@$w4*3ww4=*pp#>o",
"#2%+ryu@u;:=u*0@$u*u>u<%;8t>$<4<w4>u7<6+46+@$5&#*4",
"u1w7>1s*50y=&%<y=**0<:,u6t2*2@-@0<=u=3+1u$@<6$r@::",
":-24$=w<$$r=@u1r*uw6>,=$e+@=ww3s2%+,,$4r:$w$3<,##-",
"==s3>-&o:u&>,,w3w$:1s-=%:66=#4d>u3%==u$*&-*@wo==55",
"$$w%t33$r>u:&1$X;;y&2$j6ia,s@4=51u+u=3$@02$2$$+>*&",
"$uw<$oda@:*@&+t@ 7u@+5,-ap5q*$@u12>,p$:4%*>p=+%%5$",
"-*%$t1$$>:i*w8r3 a$46-q-#-=>20q<e,,*,-5>:upp=22$uu",
"5>11,&2%7ppy 8=:j,w 4>5150p-@@@4ia=>u,55a6a&6-s<#s",
"--#su#@$<=2% y=@e=@:1**-206+oX>#2,*u*>$1-Xys0=$4:&",
"##-2-#-->:>7t&q@y,5>:ur&2q*i7:7$2#03:t@-q<y2w4:,$u",
"#52-=p52$%781*w6=:p@ :>-%r1,&=,#$:5spt&&247q3<+1u>",
"#s0>,-#2w4j1fs<rtyps&ua>77>,1,ps-7,#=yrs2,ow3<w*2-",
",53ysq,13+7e@w:r+,25w,*>ta,2s3a#2-*u11,-6p=wu*o,2=",
">2s-q*#0%X0tya,*i7-@<:o7w>,#-*ua#52@a11,:p5>1=i=u5",
"=#u>2w&fu4q21=a*y1*23>>&0<:u4>5#04*3>=$#%%5$q*a=5s",
"5s5+ $t%=%<+:uet=53<6+:34e1@<y5sw6y@u7uw@$<72q=a5s",
"-u*oXpr au4=@$1r:>5was-%$a,#,5=2uu712&&f$u52#q2u%*"
};
